<svg version="1.1" xmlns="http://www.w3.org/2000/svg" viewBox="0 0 1007 1007" preserveAspectRatio="xMidYMid meet" role="img" aria-label="CyberSkill symbol"><title>CyberSkill — Symbol</title>
<path fill="#45210E" d="M440.74,105.24C438.57,107.31 436.34,109.32 434.24,111.45C396.51,149.62 372.28,194.94 363.36,247.94C361.00,261.96 358.95,276.67 360.60,290.61C365.03,327.86 394.91,357.91 431.83,364.83C436.72,365.75 441.74,365.99 447.76,366.67C446.25,363.86 445.51,362.41 444.71,360.99C439.52,351.76 436.89,341.74 437.46,331.28C439.59,292.12 458.82,264.15 494.09,247.40C503.54,242.91 513.74,238.86 524.37,240.46C548.54,244.08 568.70,255.56 584.00,274.71C599.85,294.56 607.55,317.21 603.76,342.68C602.58,350.68 598.73,358.28 595.94,366.54C600.14,366.07 604.74,365.76 609.28,365.02C646.76,358.93 678.39,326.95 681.79,289.35C683.09,275.01 681.40,259.97 678.55,245.76C660.58,156.26 608.76,93.67 525.89,56.23C522.56,54.73 519.74,54.77 516.42,56.20C488.64,68.19 463.51,84.23 440.74,105.24M286.68,492.68C287.33,493.79 287.84,495.03 288.66,496.01C309.77,521.00 334.76,541.22 364.05,555.81C374.41,560.97 385.11,566.59 396.29,568.75C432.86,575.80 469.79,575.54 506.61,569.95C542.88,564.44 577.64,553.96 610.26,536.94C635.98,523.52 665.74,527.11 687.31,546.61C690.82,549.79 693.88,553.47 697.21,556.99C719.17,537.69 738.05,516.18 753.92,491.92C752.88,490.96 752.29,490.39 751.67,489.85C716.65,459.10 676.90,436.77 632.38,423.02C629.71,422.20 626.42,422.16 623.73,422.88C590.94,431.64 558.24,440.68 525.45,449.40C522.30,450.24 518.53,450.16 515.37,449.32C482.60,440.59 449.90,431.59 417.14,422.79C414.87,422.18 412.12,422.01 409.91,422.68C363.87,436.81 322.88,459.92 286.68,492.68M638.19,649.76C618.87,656.02 599.04,658.95 578.74,658.64C561.32,658.37 544.38,654.93 527.57,650.67C525.52,650.15 523.25,649.86 521.20,650.17C512.81,651.43 504.51,653.47 496.09,654.30C480.88,655.80 465.52,658.26 450.38,657.41C421.19,655.78 394.13,646.06 369.15,630.77C368.01,630.08 366.77,629.54 364.88,628.58C379.82,677.66 402.39,721.59 433.60,761.12C468.86,805.78 475.31,854.49 452.71,906.78C449.58,914.01 445.21,920.71 441.42,927.66C573.22,890.90 675.19,765.33 681.09,630.67C667.34,636.80 653.13,643.13 638.19,649.76M451.50,582.22C442.35,581.80 433.14,581.91 424.08,580.83C411.40,579.32 398.22,578.68 386.33,574.56C354.34,563.46 326.35,545.24 301.71,521.95C300.02,520.35 298.29,518.80 295.87,516.57C296.03,518.46 295.98,519.13 296.14,519.76C304.31,550.58 319.45,577.59 342.61,599.41C382.99,637.45 430.26,654.77 486.43,647.41C555.69,638.32 618.85,614.52 675.70,573.98C680.68,570.44 685.48,566.65 690.58,562.80C677.02,544.66 659.58,536.33 637.56,537.45C626.04,538.04 616.34,543.51 606.23,548.29C557.60,571.26 506.26,582.29 451.50,582.22M539.68,436.11C577.96,425.69 616.23,415.27 655.76,404.52C635.09,395.02 615.54,386.03 595.88,376.99C594.66,379.02 593.75,380.59 592.80,382.14C586.60,392.20 578.93,400.85 568.67,406.95C534.79,427.12 492.29,422.38 462.34,394.88C456.38,389.41 451.11,383.19 445.40,377.18C426.21,386.11 406.96,395.05 386.82,404.41C389.27,405.16 390.65,405.61 392.04,405.99C429.43,416.19 466.92,425.99 504.13,436.78C515.78,440.15 526.68,441.36 537.94,436.64C538.25,436.51 538.57,436.41 539.68,436.11M636.17,641.72C693.20,621.32 729.75,581.97 745.79,523.55C689.81,583.44 622.34,624.06 542.50,645.37C570.12,652.87 603.64,651.54 636.17,641.72z"/>
<path fill="#F4BA17" d="M441.02,105.02C463.51,84.23 488.64,68.19 516.42,56.20C519.74,54.77 522.56,54.73 525.89,56.23C608.76,93.67 660.58,156.26 678.55,245.76C681.40,259.97 683.09,275.01 681.79,289.35C678.39,326.95 646.76,358.93 609.28,365.02C604.74,365.76 600.14,366.07 595.94,366.54C598.73,358.28 602.58,350.68 603.76,342.68C607.55,317.21 599.85,294.56 584.00,274.71C568.70,255.56 548.54,244.08 524.37,240.46C513.74,238.86 503.54,242.91 494.09,247.40C458.82,264.15 439.59,292.12 437.46,331.28C436.89,341.74 439.52,351.76 444.71,360.99C445.51,362.41 446.25,363.86 447.76,366.67C441.74,365.99 436.72,365.75 431.83,364.83C394.91,357.91 365.03,327.86 360.60,290.61C358.95,276.67 361.00,261.96 363.36,247.94C372.28,194.94 396.51,149.62 434.24,111.45C436.34,109.32 438.57,107.31 441.02,105.02M523.80,200.96C522.98,200.81 522.15,200.68 521.35,200.48C511.96,198.15 505.74,190.44 506.02,181.51C506.29,172.54 512.96,165.11 522.41,163.39C529.00,162.19 534.43,164.85 539.15,168.77C541.66,166.40 544.03,164.16 546.39,161.93C535.21,149.87 515.33,149.93 503.76,161.84C492.34,173.61 493.10,193.06 505.42,203.82C517.46,214.34 537.19,213.51 546.09,202.19C543.86,199.84 541.65,197.51 539.43,195.18C539.48,195.66 539.53,196.15 539.58,196.64C534.60,198.09 529.62,199.54 523.80,200.96z"/>
<path fill="#F4BA17" d="M286.86,492.40C322.88,459.92 363.87,436.81 409.91,422.68C412.12,422.01 414.87,422.18 417.14,422.79C449.90,431.59 482.60,440.59 515.37,449.32C518.53,450.16 522.30,450.24 525.45,449.40C558.24,440.68 590.94,431.64 623.73,422.88C626.42,422.16 629.71,422.20 632.38,423.02C676.90,436.77 716.65,459.10 751.67,489.85C752.29,490.39 752.88,490.96 753.92,491.92C738.05,516.18 719.17,537.69 697.21,556.99C693.88,553.47 690.82,549.79 687.31,546.61C665.74,527.11 635.98,523.52 610.26,536.94C577.64,553.96 542.88,564.44 506.61,569.95C469.79,575.54 432.86,575.80 396.29,568.75C385.11,566.59 374.41,560.97 364.05,555.81C334.76,541.22 309.77,521.00 288.66,496.01C287.84,495.03 287.33,493.79 286.86,492.40z"/>
<path fill="#F4BA17" d="M638.56,649.61C653.13,643.13 667.34,636.80 681.09,630.67C675.19,765.33 573.22,890.90 441.42,927.66C445.21,920.71 449.58,914.01 452.71,906.78C475.31,854.49 468.86,805.78 433.60,761.12C402.39,721.59 379.82,677.66 364.88,628.58C366.77,629.54 368.01,630.08 369.15,630.77C394.13,646.06 421.19,655.78 450.38,657.41C465.52,658.26 480.88,655.80 496.09,654.30C504.51,653.47 512.81,651.43 521.20,650.17C523.25,649.86 525.52,650.15 527.57,650.67C544.38,654.93 561.32,658.37 578.74,658.64C599.04,658.95 618.87,656.02 638.56,649.61z"/>
<path fill="#F3B917" d="M452.00,582.23C506.26,582.29 557.60,571.26 606.23,548.29C616.34,543.51 626.04,538.04 637.56,537.45C659.58,536.33 677.02,544.66 690.58,562.80C685.48,566.65 680.68,570.44 675.70,573.98C618.85,614.52 555.69,638.32 486.43,647.41C430.26,654.77 382.99,637.45 342.61,599.41C319.45,577.59 304.31,550.58 296.14,519.76C295.98,519.13 296.03,518.46 295.87,516.57C298.29,518.80 300.02,520.35 301.71,521.95C326.35,545.24 354.34,563.46 386.33,574.56C398.22,578.68 411.40,579.32 424.08,580.83C433.14,581.91 442.35,581.80 452.00,582.23z"/>
<path fill="#F2B817" d="M539.28,436.20C538.57,436.41 538.25,436.51 537.94,436.64C526.68,441.36 515.78,440.15 504.13,436.78C466.92,425.99 429.43,416.19 392.04,405.99C390.65,405.61 389.27,405.16 386.82,404.41C406.96,395.05 426.21,386.11 445.40,377.18C451.11,383.19 456.38,389.41 462.34,394.88C492.29,422.38 534.79,427.12 568.67,406.95C578.93,400.85 586.60,392.20 592.80,382.14C593.75,380.59 594.66,379.02 595.88,376.99C615.54,386.03 635.09,395.02 655.76,404.52C616.23,415.27 577.96,425.69 539.28,436.20z"/>
<path fill="#F2B817" d="M635.79,641.84C603.64,651.54 570.12,652.87 542.50,645.37C622.34,624.06 689.81,583.44 745.79,523.55C729.75,581.97 693.20,621.32 635.79,641.84z"/>
<path fill="#48240F" d="M524.22,200.97C529.62,199.54 534.60,198.09 539.58,196.64C539.53,196.15 539.48,195.66 539.43,195.18C541.65,197.51 543.86,199.84 546.09,202.19C537.19,213.51 517.46,214.34 505.42,203.82C493.10,193.06 492.34,173.61 503.76,161.84C515.33,149.93 535.21,149.87 546.39,161.93C544.03,164.16 541.66,166.40 539.15,168.77C534.43,164.85 529.00,162.19 522.41,163.39C512.96,165.11 506.29,172.54 506.02,181.51C505.74,190.44 511.96,198.15 521.35,200.48C522.15,200.68 522.98,200.81 523.80,200.96z"/>
</svg>
