<svg version="1.1" id="Layer_1" xmlns="http://www.w3.org/2000/svg" xmlns:xlink="http://www.w3.org/1999/xlink" x="0px" y="0px" width="100%" viewBox="0 0 1007 1007" enable-background="new 0 0 1007 1007" xml:space="preserve">
<path fill="#45210E" opacity="1.000000" stroke="none" d="&#xA;M560.000000,1008.000000 &#xA;&#x9;C373.333344,1008.000000 187.166672,1008.000000 1.000000,1008.000000 &#xA;&#x9;C1.000000,672.333313 1.000000,336.666656 1.000000,1.000000 &#xA;&#x9;C336.666656,1.000000 672.333313,1.000000 1008.000000,1.000000 &#xA;&#x9;C1008.000000,336.666656 1008.000000,672.333313 1008.000000,1008.000000 &#xA;&#x9;C858.833313,1008.000000 709.666687,1008.000000 560.000000,1008.000000 &#xA;M440.743774,105.242386 &#xA;&#x9;C438.572540,107.309639 436.344940,109.321198 434.238464,111.452431 &#xA;&#x9;C396.510132,149.623566 372.276398,194.939011 363.356293,247.940109 &#xA;&#x9;C360.996429,261.961884 358.946777,276.673065 360.603027,290.610352 &#xA;&#x9;C365.030243,327.864777 394.910004,357.905762 431.834900,364.830811 &#xA;&#x9;C436.723083,365.747589 441.737213,365.993011 447.763702,366.669525 &#xA;&#x9;C446.254150,363.858124 445.507843,362.409912 444.709564,360.990906 &#xA;&#x9;C439.517578,351.761383 436.885193,341.740936 437.455444,331.277863 &#xA;&#x9;C439.589569,292.120056 458.815063,264.154144 494.094208,247.402267 &#xA;&#x9;C503.544983,242.914673 513.742554,238.863556 524.373901,240.455948 &#xA;&#x9;C548.543213,244.076111 568.703491,255.555466 584.000793,274.713074 &#xA;&#x9;C599.847656,294.559021 607.550598,317.209198 603.764282,342.677429 &#xA;&#x9;C602.575073,350.677063 598.728027,358.281586 595.936157,366.544159 &#xA;&#x9;C600.137085,366.074554 604.740540,365.758667 609.275574,365.021576 &#xA;&#x9;C646.763123,358.928711 678.394348,326.946808 681.791199,289.350922 &#xA;&#x9;C683.086792,275.012085 681.404419,259.972870 678.550415,245.760666 &#xA;&#x9;C660.577881,156.262833 608.759338,93.666801 525.888672,56.228947 &#xA;&#x9;C522.563171,54.726585 519.736023,54.769550 516.419739,56.200459 &#xA;&#x9;C488.640594,68.186523 463.511292,84.231010 440.743774,105.242386 &#xA;M286.676636,492.678345 &#xA;&#x9;C287.329773,493.793732 287.835724,495.033447 288.657562,496.006378 &#xA;&#x9;C309.770172,521.000305 334.755707,541.223022 364.045837,555.811401 &#xA;&#x9;C374.407410,560.972046 385.114655,566.593323 396.291962,568.749573 &#xA;&#x9;C432.863312,575.804749 469.791931,575.543579 506.608704,569.950623 &#xA;&#x9;C542.882812,564.440125 577.636902,553.955383 610.255371,536.938660 &#xA;&#x9;C635.979919,523.518494 665.744080,527.108459 687.312561,546.611755 &#xA;&#x9;C690.823608,549.786621 693.878845,553.465637 697.214539,556.985291 &#xA;&#x9;C719.173889,537.685486 738.051208,516.184204 753.920410,491.916840 &#xA;&#x9;C752.879761,490.957520 752.286987,490.387451 751.669678,489.845367 &#xA;&#x9;C716.653381,459.096100 676.901917,436.766174 632.377991,423.023193 &#xA;&#x9;C629.713745,422.200836 626.423889,422.161865 623.725525,422.882690 &#xA;&#x9;C590.944153,431.639587 558.238403,440.679779 525.448730,449.404907 &#xA;&#x9;C522.300964,450.242554 518.534851,450.164001 515.372437,449.321808 &#xA;&#x9;C482.598022,440.593750 449.897797,431.587128 417.141144,422.791412 &#xA;&#x9;C414.867096,422.180786 412.115295,422.006958 409.909119,422.683990 &#xA;&#x9;C363.870605,436.812317 322.877258,459.923096 286.676636,492.678345 &#xA;M638.193726,649.759216 &#xA;&#x9;C618.869507,656.015442 599.040955,658.948853 578.743958,658.635498 &#xA;&#x9;C561.320618,658.366577 544.380371,654.932678 527.565796,650.671387 &#xA;&#x9;C525.521851,650.153320 523.254150,649.859985 521.196533,650.169861 &#xA;&#x9;C512.810059,651.432678 504.514069,653.468018 496.093933,654.298462 &#xA;&#x9;C480.882416,655.798584 465.515686,658.255371 450.375763,657.410278 &#xA;&#x9;C421.185272,655.780762 394.125427,646.062805 369.145020,630.771667 &#xA;&#x9;C368.008179,630.075806 366.770874,629.544006 364.879761,628.577820 &#xA;&#x9;C379.822174,677.662048 402.386169,721.588440 433.601837,761.123535 &#xA;&#x9;C468.862305,805.781311 475.313782,854.488708 452.707825,906.779114 &#xA;&#x9;C449.580719,914.012512 445.212494,920.709351 441.423889,927.657288 &#xA;&#x9;C573.221985,890.897766 675.186523,765.328125 681.092896,630.672180 &#xA;&#x9;C667.338623,636.799011 653.131897,643.127319 638.193726,649.759216 &#xA;M451.496307,582.220520 &#xA;&#x9;C442.351196,581.799133 433.142700,581.909058 424.076202,580.828186 &#xA;&#x9;C411.400055,579.317017 398.218109,578.681030 386.332123,574.558289 &#xA;&#x9;C354.337128,563.460327 326.346069,545.236816 301.709656,521.949341 &#xA;&#x9;C300.020294,520.352478 298.291534,518.797302 295.873596,516.571472 &#xA;&#x9;C296.025665,518.456909 295.980042,519.134644 296.144836,519.756653 &#xA;&#x9;C304.310333,550.579102 319.447479,577.592346 342.608459,599.413086 &#xA;&#x9;C382.985504,637.453735 430.264038,654.771729 486.434967,647.405457 &#xA;&#x9;C555.692078,638.323059 618.847046,614.520935 675.700134,573.984924 &#xA;&#x9;C680.675537,570.437500 685.476868,566.646118 690.581665,562.800293 &#xA;&#x9;C677.023743,544.661377 659.575134,536.325806 637.562927,537.450195 &#xA;&#x9;C626.043884,538.038574 616.340271,543.514893 606.234131,548.288513 &#xA;&#x9;C557.596436,571.262329 506.255249,582.294250 451.496307,582.220520 &#xA;M539.676270,436.107300 &#xA;&#x9;C577.955139,425.690460 616.233948,415.273621 655.757202,404.518158 &#xA;&#x9;C635.089294,395.015900 615.544373,386.029968 595.877441,376.987946 &#xA;&#x9;C594.662292,379.021637 593.749573,380.591156 592.797180,382.136292 &#xA;&#x9;C586.595276,392.197998 578.925293,400.845184 568.666138,406.952454 &#xA;&#x9;C534.791809,427.117798 492.288269,422.383606 462.337891,394.876129 &#xA;&#x9;C456.381653,389.405701 451.112213,383.187500 445.401093,377.182709 &#xA;&#x9;C426.206024,386.105682 406.958923,395.052887 386.824615,404.412476 &#xA;&#x9;C389.268799,405.156464 390.645874,405.614380 392.043884,405.995544 &#xA;&#x9;C429.426819,416.187622 466.920624,425.996552 504.132446,436.778748 &#xA;&#x9;C515.781982,440.154175 526.683472,441.361206 537.944458,436.636871 &#xA;&#x9;C538.251221,436.508148 538.570312,436.408813 539.676270,436.107300 &#xA;M636.169495,641.720032 &#xA;&#x9;C693.203857,621.317932 729.752136,581.965942 745.785767,523.547119 &#xA;&#x9;C689.811462,583.441650 622.343140,624.064514 542.504456,645.372620 &#xA;&#x9;C570.121521,652.872437 603.639343,651.544189 636.169495,641.720032 &#xA;z"></path>
<path fill="#F4BA17" opacity="1.000000" stroke="none" d="&#xA;M441.015747,105.015450 &#xA;&#x9;C463.511292,84.231010 488.640594,68.186523 516.419739,56.200459 &#xA;&#x9;C519.736023,54.769550 522.563171,54.726585 525.888672,56.228947 &#xA;&#x9;C608.759338,93.666801 660.577881,156.262833 678.550415,245.760666 &#xA;&#x9;C681.404419,259.972870 683.086792,275.012085 681.791199,289.350922 &#xA;&#x9;C678.394348,326.946808 646.763123,358.928711 609.275574,365.021576 &#xA;&#x9;C604.740540,365.758667 600.137085,366.074554 595.936157,366.544159 &#xA;&#x9;C598.728027,358.281586 602.575073,350.677063 603.764282,342.677429 &#xA;&#x9;C607.550598,317.209198 599.847656,294.559021 584.000793,274.713074 &#xA;&#x9;C568.703491,255.555466 548.543213,244.076111 524.373901,240.455948 &#xA;&#x9;C513.742554,238.863556 503.544983,242.914673 494.094208,247.402267 &#xA;&#x9;C458.815063,264.154144 439.589569,292.120056 437.455444,331.277863 &#xA;&#x9;C436.885193,341.740936 439.517578,351.761383 444.709564,360.990906 &#xA;&#x9;C445.507843,362.409912 446.254150,363.858124 447.763702,366.669525 &#xA;&#x9;C441.737213,365.993011 436.723083,365.747589 431.834900,364.830811 &#xA;&#x9;C394.910004,357.905762 365.030243,327.864777 360.603027,290.610352 &#xA;&#x9;C358.946777,276.673065 360.996429,261.961884 363.356293,247.940109 &#xA;&#x9;C372.276398,194.939011 396.510132,149.623566 434.238464,111.452431 &#xA;&#x9;C436.344940,109.321198 438.572540,107.309639 441.015747,105.015450 &#xA;M523.796143,200.964203 &#xA;&#x9;C522.979370,200.806061 522.153381,200.684708 521.347168,200.484161 &#xA;&#x9;C511.964752,198.150375 505.739960,190.440384 506.015442,181.511810 &#xA;&#x9;C506.292053,172.544968 512.964478,165.113678 522.410034,163.391052 &#xA;&#x9;C528.999146,162.189362 534.425354,164.852509 539.153198,168.766846 &#xA;&#x9;C541.656067,166.404358 544.030029,164.163544 546.391113,161.934906 &#xA;&#x9;C535.207764,149.868927 515.326111,149.927109 503.764648,161.836975 &#xA;&#x9;C492.335419,173.610657 493.100830,193.056198 505.417236,203.820190 &#xA;&#x9;C517.457336,214.342712 537.192993,213.508774 546.093628,202.189407 &#xA;&#x9;C543.863281,199.842941 541.645081,197.509277 539.426880,195.175613 &#xA;&#x9;C539.477722,195.664429 539.528503,196.153259 539.579346,196.642075 &#xA;&#x9;C534.598694,198.089890 529.617981,199.537689 523.796143,200.964203 &#xA;z"></path>
<path fill="#F4BA17" opacity="1.000000" stroke="none" d="&#xA;M286.857971,492.402985 &#xA;&#x9;C322.877258,459.923096 363.870605,436.812317 409.909119,422.683990 &#xA;&#x9;C412.115295,422.006958 414.867096,422.180786 417.141144,422.791412 &#xA;&#x9;C449.897797,431.587128 482.598022,440.593750 515.372437,449.321808 &#xA;&#x9;C518.534851,450.164001 522.300964,450.242554 525.448730,449.404907 &#xA;&#x9;C558.238403,440.679779 590.944153,431.639587 623.725525,422.882690 &#xA;&#x9;C626.423889,422.161865 629.713745,422.200836 632.377991,423.023193 &#xA;&#x9;C676.901917,436.766174 716.653381,459.096100 751.669678,489.845367 &#xA;&#x9;C752.286987,490.387451 752.879761,490.957520 753.920410,491.916840 &#xA;&#x9;C738.051208,516.184204 719.173889,537.685486 697.214539,556.985291 &#xA;&#x9;C693.878845,553.465637 690.823608,549.786621 687.312561,546.611755 &#xA;&#x9;C665.744080,527.108459 635.979919,523.518494 610.255371,536.938660 &#xA;&#x9;C577.636902,553.955383 542.882812,564.440125 506.608704,569.950623 &#xA;&#x9;C469.791931,575.543579 432.863312,575.804749 396.291962,568.749573 &#xA;&#x9;C385.114655,566.593323 374.407410,560.972046 364.045837,555.811401 &#xA;&#x9;C334.755707,541.223022 309.770172,521.000305 288.657562,496.006378 &#xA;&#x9;C287.835724,495.033447 287.329773,493.793732 286.857971,492.402985 &#xA;z"></path>
<path fill="#F4BA17" opacity="1.000000" stroke="none" d="&#xA;M638.559448,649.607422 &#xA;&#x9;C653.131897,643.127319 667.338623,636.799011 681.092896,630.672180 &#xA;&#x9;C675.186523,765.328125 573.221985,890.897766 441.421356,927.655945 &#xA;&#x9;C445.212494,920.709351 449.580719,914.012512 452.707825,906.779114 &#xA;&#x9;C475.313782,854.488708 468.862305,805.781311 433.601837,761.123535 &#xA;&#x9;C402.386169,721.588440 379.822174,677.662048 364.879761,628.577820 &#xA;&#x9;C366.770874,629.544006 368.008179,630.075806 369.145020,630.771667 &#xA;&#x9;C394.125427,646.062805 421.185272,655.780762 450.375763,657.410278 &#xA;&#x9;C465.515686,658.255371 480.882416,655.798584 496.093933,654.298462 &#xA;&#x9;C504.514069,653.468018 512.810059,651.432678 521.196533,650.169861 &#xA;&#x9;C523.254150,649.859985 525.521851,650.153320 527.565796,650.671387 &#xA;&#x9;C544.380371,654.932678 561.320618,658.366577 578.743958,658.635498 &#xA;&#x9;C599.040955,658.948853 618.869507,656.015442 638.559448,649.607422 &#xA;z"></path>
<path fill="#F3B917" opacity="1.000000" stroke="none" d="&#xA;M451.996887,582.225220 &#xA;&#x9;C506.255249,582.294250 557.596436,571.262329 606.234131,548.288513 &#xA;&#x9;C616.340271,543.514893 626.043884,538.038574 637.562927,537.450195 &#xA;&#x9;C659.575134,536.325806 677.023743,544.661377 690.581665,562.800293 &#xA;&#x9;C685.476868,566.646118 680.675537,570.437500 675.700134,573.984924 &#xA;&#x9;C618.847046,614.520935 555.692078,638.323059 486.434967,647.405457 &#xA;&#x9;C430.264038,654.771729 382.985504,637.453735 342.608459,599.413086 &#xA;&#x9;C319.447479,577.592346 304.310333,550.579102 296.144836,519.756653 &#xA;&#x9;C295.980042,519.134644 296.025665,518.456909 295.873596,516.571472 &#xA;&#x9;C298.291534,518.797302 300.020294,520.352478 301.709656,521.949341 &#xA;&#x9;C326.346069,545.236816 354.337128,563.460327 386.332123,574.558289 &#xA;&#x9;C398.218109,578.681030 411.400055,579.317017 424.076202,580.828186 &#xA;&#x9;C433.142700,581.909058 442.351196,581.799133 451.996887,582.225220 &#xA;z"></path>
<path fill="#F2B817" opacity="1.000000" stroke="none" d="&#xA;M539.279968,436.201538 &#xA;&#x9;C538.570312,436.408813 538.251221,436.508148 537.944458,436.636871 &#xA;&#x9;C526.683472,441.361206 515.781982,440.154175 504.132446,436.778748 &#xA;&#x9;C466.920624,425.996552 429.426819,416.187622 392.043884,405.995544 &#xA;&#x9;C390.645874,405.614380 389.268799,405.156464 386.824615,404.412476 &#xA;&#x9;C406.958923,395.052887 426.206024,386.105682 445.401093,377.182709 &#xA;&#x9;C451.112213,383.187500 456.381653,389.405701 462.337891,394.876129 &#xA;&#x9;C492.288269,422.383606 534.791809,427.117798 568.666138,406.952454 &#xA;&#x9;C578.925293,400.845184 586.595276,392.197998 592.797180,382.136292 &#xA;&#x9;C593.749573,380.591156 594.662292,379.021637 595.877441,376.987946 &#xA;&#x9;C615.544373,386.029968 635.089294,395.015900 655.757202,404.518158 &#xA;&#x9;C616.233948,415.273621 577.955139,425.690460 539.279968,436.201538 &#xA;z"></path>
<path fill="#F2B817" opacity="1.000000" stroke="none" d="&#xA;M635.789856,641.836487 &#xA;&#x9;C603.639343,651.544189 570.121521,652.872437 542.504456,645.372620 &#xA;&#x9;C622.343140,624.064514 689.811462,583.441650 745.785767,523.547119 &#xA;&#x9;C729.752136,581.965942 693.203857,621.317932 635.789856,641.836487 &#xA;z"></path>
<path fill="#48240F" opacity="1.000000" stroke="none" d="&#xA;M524.216736,200.974854 &#xA;&#x9;C529.617981,199.537689 534.598694,198.089890 539.579346,196.642075 &#xA;&#x9;C539.528503,196.153259 539.477722,195.664429 539.426880,195.175613 &#xA;&#x9;C541.645081,197.509277 543.863281,199.842941 546.093628,202.189407 &#xA;&#x9;C537.192993,213.508774 517.457336,214.342712 505.417236,203.820190 &#xA;&#x9;C493.100830,193.056198 492.335419,173.610657 503.764648,161.836975 &#xA;&#x9;C515.326111,149.927109 535.207764,149.868927 546.391113,161.934906 &#xA;&#x9;C544.030029,164.163544 541.656067,166.404358 539.153198,168.766846 &#xA;&#x9;C534.425354,164.852509 528.999146,162.189362 522.410034,163.391052 &#xA;&#x9;C512.964478,165.113678 506.292053,172.544968 506.015442,181.511810 &#xA;&#x9;C505.739960,190.440384 511.964752,198.150375 521.347168,200.484161 &#xA;&#x9;C522.153381,200.684708 522.979370,200.806061 524.216736,200.974854 &#xA;z"></path>
</svg>